<?xml version="1.0" standalone="no"?>
<!DOCTYPE svg PUBLIC "-//W3C//DTD SVG 20010904//EN"
 "http://www.w3.org/TR/2001/REC-SVG-20010904/DTD/svg10.dtd">
<svg version="1.0" xmlns="http://www.w3.org/2000/svg"
 width="240.000000pt" height="240.000000pt" viewBox="0 0 240.000000 240.000000"
 preserveAspectRatio="xMidYMid meet">
<metadata>
Created by potrace 1.11, written by Peter Selinger 2001-2013
</metadata>
<g transform="translate(0.000000,240.000000) scale(0.100000,-0.100000)"
fill="#000000" stroke="none">
<path d="M579 2081 c-128 -41 -226 -142 -264 -273 -14 -50 -16 -123 -13 -630
l3 -574 37 -76 c45 -90 104 -147 198 -192 l65 -31 595 0 595 0 68 32 c74 35
165 119 191 175 47 107 46 97 44 708 l-3 575 -31 65 c-53 113 -128 181 -240
219 -56 19 -83 20 -624 20 -516 0 -570 -1 -621 -18z"/>
</g>
</svg>
